<svg width="520" height="310" viewBox="0 0 520 310" fill="none" xmlns="http://www.w3.org/2000/svg" xmlns:c2pa="http://c2pa.org/manifest"><metadata><c2pa:manifest>AAAWgmp1bWIAAAAeanVtZGMycGEAEQAQgAAAqgA4m3EDYzJwYQAAABZcanVtYgAAAEdqdW1kYzJtYQARABCAAACqADibcQN1cm46YzJwYTo1MTIwOWVkMy02NWNhLTQxNWYtYTk5MS1jYzAyMDU5M2NmMTcAAAADl2p1bWIAAAApanVtZGMyYXMAEQAQgAAAqgA4m3EDYzJwYS5hc3NlcnRpb25zAAAAALxqdW1iAAAARGp1bWRjYm9yABEAEIAAAKoAOJtxE2MycGEuaW5ncmVkaWVudC52MwAAAAAYYzJzaMAmY/eCfgcIe/S1Es4ZNKQAAABwY2JvcqNpZGM6Zm9ybWF0bWltYWdlL3N2Zyt4bWxqaW5zdGFuY2VJRHgseG1wOmlpZDpjNDY4NmVjMy02M2ZkLTQ2N2QtOTkxZS0zZTc4ZTQ2YzRkMTRscmVsYXRpb25zaGlwaHBhcmVudE9mAAAB4mp1bWIAAABBanVtZGNib3IAEQAQgAAAqgA4m3ETYzJwYS5hY3Rpb25zLnYyAAAAABhjMnNodcNNtMThUhzjASB8EHCF4AAAAZljYm9yomdhY3Rpb25zgqJmYWN0aW9ua2MycGEub3BlbmVkanBhcmFtZXRlcnOha2luZ3JlZGllbnRzgaJjdXJseC1zZWxmI2p1bWJmPWMycGEuYXNzZXJ0aW9ucy9jMnBhLmluZ3JlZGllbnQudjNkaGFzaFggWUjeG7H93X1C1P0iHGfdgxcf8mrj9FmIEUjsTtzALNCkZmFjdGlvbngdY29tLmFudGhyb3BpYy5jbGF1ZGUucHJvdmlkZWRqcGFyYW1ldGVyc6F4H2NvbS5hbnRocm9waWMub3JpZ2luLWNvbmZpZGVuY2VndW5rbm93bmtkZXNjcmlwdGlvbnhmQ2xhdWRlIHByb3ZpZGVkIHRoaXMgZmlsZSBhdCB0aGUgcmVxdWVzdCBvZiBhIHVzZXIgYW5kIG1heSBoYXZlIGNyZWF0ZWQgb3IgbW9kaWZpZWQgdGhlIGZpbGUgY29udGVudHMubXNvZnR3YXJlQWdlbnShZG5hbWVmQ2xhdWRlcmFsbEFjdGlvbnNJbmNsdWRlZPUAAADIanVtYgAAAEBqdW1kY2JvcgARABCAAACqADibcRNjMnBhLmhhc2guZGF0YQAAAAAYYzJzaGg3RGb1LcOZII6szhpPBQQAAACAY2JvcqVjYWxnZnNoYTI1NmNwYWRNAAAAAAAAAAAAAAAAAGRoYXNoWCADXs0KmabU/ACC8bVCnTpf6aRETqGImTYVkYK0Kc2sDWRuYW1lbmp1bWJmIG1hbmlmZXN0amV4Y2x1c2lvbnOBomVzdGFydBiiZmxlbmd0aBkeBAAAAj5qdW1iAAAAJ2p1bWRjMmNsABEAEIAAAKoAOJtxA2MycGEuY2xhaW0udjIAAAACD2Nib3KlY2FsZ2ZzaGEyNTZpc2lnbmF0dXJleE1zZWxmI2p1bWJmPS9jMnBhL3VybjpjMnBhOjUxMjA5ZWQzLTY1Y2EtNDE1Zi1hOTkxLWNjMDIwNTkzY2YxNy9jMnBhLnNpZ25hdHVyZWppbnN0YW5jZUlEeCx4bXA6aWlkOmFlYjExNDk1LTkxOTktNDAxNy1hNDM3LTJhMDE4N2U4MTIxZnJjcmVhdGVkX2Fzc2VydGlvbnODomN1cmx4LXNlbGYjanVtYmY9YzJwYS5hc3NlcnRpb25zL2MycGEuaW5ncmVkaWVudC52M2RoYXNoWCBZSN4bsf3dfULU/SIcZ92DFx/yauP0WYgRSOxO3MAs0KJjdXJseCpzZWxmI2p1bWJmPWMycGEuYXNzZXJ0aW9ucy9jMnBhLmFjdGlvbnMudjJkaGFzaFggoL4R2du9VDqz/ARwuKnreLCfAXdEbAF/lyo91S1FFLaiY3VybHgpc2VsZiNqdW1iZj1jMnBhLmFzc2VydGlvbnMvYzJwYS5oYXNoLmRhdGFkaGFzaFgg05HN6JvWPx01drKIP4wcmC//QoaW5SCX+tWZOMeRIPx0Y2xhaW1fZ2VuZXJhdG9yX2luZm+jZG5hbWVvQW50aHJvcGljIEZpbGVzZ3ZlcnNpb25lMS4wLjBrc3BlY1ZlcnNpb25lMi40LjAAABA4anVtYgAAAChqdW1kYzJjcwARABCAAACqADibcQNjMnBhLnNpZ25hdHVyZQAAABAIY2JvctKEWQISogEmGCFZAgowggIGMIIBjaADAgECAhRA5aAK7sI50L64g/oGQgU9Z1UTADAKBggqhkjOPQQDAzBJMRcwFQYDVQQKEw5BbnRocm9waWMsIFBCQzEuMCwGA1UEAxMlQW50aHJvcGljIENvbnRlbnQgQ3JlZGVudGlhbHMgUm9vdCBDQTAeFw0yNjA4MDcxODQzNTZaFw0yODA4MDYxOTQzNTZaMEQxFzAVBgNVBAoTDkFudGhyb3BpYywgUEJDMSkwJwYDVQQDEyBBbnRocm9waWMgQ2xhdWRlIENvbnRlbnQgU2lnbmluZzBZMBMGByqGSM49AgEGCCqGSM49AwEHA0IABJh6CmvLUBgFFNU0vUKlOVtE6djd17L5SuwX0LemFisBM3dkd/3cyjxFA3Qo5S46fX0/ihY0VZ7mfb9KF703t5OjWDBWMA4GA1UdDwEB/wQEAwIHgDAVBgNVHSUEDjAMBgorBgEEAYPoXgIBMAwGA1UdEwEB/wQCMAAwHwYDVR0jBBgwFoAUzlHiBIFOZFsj+OPEz5o+nMHXXMIwCgYIKoZIzj0EAwMDZwAwZAIwMXMdFJ4BetLLVY7ORuE9noqbbAZOZn/aArXyTwFAZfKrPzxF2vPoJNf1+UCdg1XGAjBwX1zd9WGqYkqmL5SFqw1QySjr1zJfpJM9+1rdDwSPLMOPOjKuiXjoU/pUUeG9RwmhY3BhZFkNngAAAAAAAAAAAAAAAAAAAAAAAAAAAAAAAAAAAAAAAAAAAAAAAAAAAAAAAAAAAAAAAAAAAAAAAAAAAAAAAAAAAAAAAAAAAAAAAAAAAAAAAAAAAAAAAAAAAAAAAAAAAAAAAAAAAAAAAAAAAAAAAAAAAAAAAAAAAAAAAAAAAAAAAAAAAAAAAAAAAAAAAAAAAAAAAAAAAAAAAAAAAAAAAAAAAAAAAAAAAAAAAAAAAAAAAAAAAAAAAAAAAAAAAAAAAAAAAAAAAAAAAAAAAAAAAAAAAAAAAAAAAAAAAAAAAAAAAAAAAAAAAAAAAAAAAAAAAAAAAAAAAAAAAAAAAAAAAAAAAAAAAAAAAAAAAAAAAAAAAAAAAAAAAAAAAAAAAAAAAAAAAAAAAAAAAAAAAAAAAAAAAAAAAAAAAAAAAAAAAAAAAAAAAAAAAAAAAAAAAAAAAAAAAAAAAAAAAAAAAAAAAAAAAAAAAAAAAAAAAAAAAAAAAAAAAAAAAAAAAAAAAAAAAAAAAAAAAAAAAAAAAAAAAAAAAAAAAAAAAAAAAAAAAAAAAAAAAAAAAAAAAAAAAAAAAAAAAAAAAAAAAAAAAAAAAAAAAAAAAAAAAAAAAAAAAAAAAAAAAAAAAAAAAAAAAAAAAAAAAAAAAAAAAAAAAAAAAAAAAAAAAAAAAAAAAAAAAAAAAAAAAAAAAAAAAAAAAAAAAAAAAAAAAAAAAAAAAAAAAAAAAAAAAAAAAAAAAAAAAAAAAAAAAAAAAAAAAAAAAAAAAAAAAAAAAAAAAAAAAAAAAAAAAAAAAAAAAAAAAAAAAAAAAAAAAAAAAAAAAAAAAAAAAAAAAAAAAAAAAAAAAAAAAAAAAAAAAAAAAAAAAAAAAAAAAAAAAAAAAAAAAAAAAAAAAAAAAAAAAAAAAAAAAAAAAAAAAAAAAAAAAAAAAAAAAAAAAAAAAAAAAAAAAAAAAAAAAAAAAAAAAAAAAAAAAAAAAAAAAAAAAAAAAAAAAAAAAAAAAAAAAAAAAAAAAAAAAAAAAAAAAAAAAAAAAAAAAAAAAAAAAAAAAAAAAAAAAAAAAAAAAAAAAAAAAAAAAAAAAAAAAAAAAAAAAAAAAAAAAAAAAAAAAAAAAAAAAAAAAAAAAAAAAAAAAAAAAAAAAAAAAAAAAAAAAAAAAAAAAAAAAAAAAAAAAAAAAAAAAAAAAAAAAAAAAAAAAAAAAAAAAAAAAAAAAAAAAAAAAAAAAAAAAAAAAAAAAAAAAAAAAAAAAAAAAAAAAAAAAAAAAAAAAAAAAAAAAAAAAAAAAAAAAAAAAAAAAAAAAAAAAAAAAAAAAAAAAAAAAAAAAAAAAAAAAAAAAAAAAAAAAAAAAAAAAAAAAAAAAAAAAAAAAAAAAAAAAAAAAAAAAAAAAAAAAAAAAAAAAAAAAAAAAAAAAAAAAAAAAAAAAAAAAAAAAAAAAAAAAAAAAAAAAAAAAAAAAAAAAAAAAAAAAAAAAAAAAAAAAAAAAAAAAAAAAAAAAAAAAAAAAAAAAAAAAAAAAAAAAAAAAAAAAAAAAAAAAAAAAAAAAAAAAAAAAAAAAAAAAAAAAAAAAAAAAAAAAAAAAAAAAAAAAAAAAAAAAAAAAAAAAAAAAAAAAAAAAAAAAAAAAAAAAAAAAAAAAAAAAAAAAAAAAAAAAAAAAAAAAAAAAAAAAAAAAAAAAAAAAAAAAAAAAAAAAAAAAAAAAAAAAAAAAAAAAAAAAAAAAAAAAAAAAAAAAAAAAAAAAAAAAAAAAAAAAAAAAAAAAAAAAAAAAAAAAAAAAAAAAAAAAAAAAAAAAAAAAAAAAAAAAAAAAAAAAAAAAAAAAAAAAAAAAAAAAAAAAAAAAAAAAAAAAAAAAAAAAAAAAAAAAAAAAAAAAAAAAAAAAAAAAAAAAAAAAAAAAAAAAAAAAAAAAAAAAAAAAAAAAAAAAAAAAAAAAAAAAAAAAAAAAAAAAAAAAAAAAAAAAAAAAAAAAAAAAAAAAAAAAAAAAAAAAAAAAAAAAAAAAAAAAAAAAAAAAAAAAAAAAAAAAAAAAAAAAAAAAAAAAAAAAAAAAAAAAAAAAAAAAAAAAAAAAAAAAAAAAAAAAAAAAAAAAAAAAAAAAAAAAAAAAAAAAAAAAAAAAAAAAAAAAAAAAAAAAAAAAAAAAAAAAAAAAAAAAAAAAAAAAAAAAAAAAAAAAAAAAAAAAAAAAAAAAAAAAAAAAAAAAAAAAAAAAAAAAAAAAAAAAAAAAAAAAAAAAAAAAAAAAAAAAAAAAAAAAAAAAAAAAAAAAAAAAAAAAAAAAAAAAAAAAAAAAAAAAAAAAAAAAAAAAAAAAAAAAAAAAAAAAAAAAAAAAAAAAAAAAAAAAAAAAAAAAAAAAAAAAAAAAAAAAAAAAAAAAAAAAAAAAAAAAAAAAAAAAAAAAAAAAAAAAAAAAAAAAAAAAAAAAAAAAAAAAAAAAAAAAAAAAAAAAAAAAAAAAAAAAAAAAAAAAAAAAAAAAAAAAAAAAAAAAAAAAAAAAAAAAAAAAAAAAAAAAAAAAAAAAAAAAAAAAAAAAAAAAAAAAAAAAAAAAAAAAAAAAAAAAAAAAAAAAAAAAAAAAAAAAAAAAAAAAAAAAAAAAAAAAAAAAAAAAAAAAAAAAAAAAAAAAAAAAAAAAAAAAAAAAAAAAAAAAAAAAAAAAAAAAAAAAAAAAAAAAAAAAAAAAAAAAAAAAAAAAAAAAAAAAAAAAAAAAAAAAAAAAAAAAAAAAAAAAAAAAAAAAAAAAAAAAAAAAAAAAAAAAAAAAAAAAAAAAAAAAAAAAAAAAAAAAAAAAAAAAAAAAAAAAAAAAAAAAAAAAAAAAAAAAAAAAAAAAAAAAAAAAAAAAAAAAAAAAAAAAAAAAAAAAAAAAAAAAAAAAAAAAAAAAAAAAAAAAAAAAAAAAAAAAAAAAAAAAAAAAAAAAAAAAAAAAAAAAAAAAAAAAAAAAAAAAAAAAAAAAAAAAAAAAAAAAAAAAAAAAAAAAAAAAAAAAAAAAAAAAAAAAAAAAAAAAAAAAAAAAAAAAAAAAAAAAAAAAAAAAAAAAAAAAAAAAAAAAAAAAAAAAAAAAAAAAAAAAAAAAAAAAAAAAAAAAAAAAAAAAAAAAAAAAAAAAAAAAAAAAAAAAAAAAAAAAAAAAAAAAAAAAAAAAAAAAAAAAAAAAAAAAAAAAAAAAAAAAAAAAAAAAAAAAAAAAAAAAAAAAAAAAAAAAAAAAAAAAAAAAAAAAAAAAAAAAAAAAAAAAAAAAAAAAAAAAAAAAAAAAAAAAAAAAAAAAAAAAAAAAAAAAAAAAAAAAAAAAAAAAAAAAAAAAAAAAAAAAAAAAAAAAAAAAAAAAAAAAAAAAAAAAAAAAAAAAAAAAAAAAAAAAAAAAAAAAAAAAAAAAAAAAAAAAAAAAAAAAAAAAAAAAAAAAAAAAAAAAAAAAAAAAAAAAAAAAAAAAAAAAAAAAAAAAAAAAAAAAAAAAAAAAAAAAAAAAAAAAAAAAAAAAAAAAAAAAAAAAAAAAAAAAAAAAAAAAAAAAAAAAAAAAAAAAAAAAAAAAAAAAAAAAAAAAAAAAAAAAAAAAAAAAAAAAAAAAAAAAAAAAAAAAAAAAAAAAAAAAAAAAAAAAAAAAAAAAAAAAAAAAAAAAAAAAAAAAAAAAAAAAAAAAAAAAAAAAAAAAAAAAAAAAAAAAAAAAAAAAAAAAAAAAAAAAAAAAAAAAAAAAAAAAAAAAAAAAAAAAAAAAAAAAAAAAAAAAAAAAAAAAAAAAAAAAAAAAAAAAAAAAAAAAAAAAAAAAAAAAAAAAAAAAAAAAAAAAAAAAAAAAAAAAAAAAAAAAAAAAAAAAAAAAAAAAAAAAAAAAAAAAAAAAAAAAAAAAAAAAAAAAAAAAAAAAAAAAAAAAAAAAAAAAAAAAAAAAAAAAAAAAAAAAAAAAAAAAAAAAAAAAAAAAAAAAAAAAAAAAAAAAAAAAAAAAAAAAAAAAAAAAAAAAAAAAAAAAAAAAAAAAAAAAAAAAAAAAAAAAAAAAAAAAAAAAAAAAAAAAAAAAAAAAAAAAAAAAAAAAAAAAAAAAAAAAAAAAAAAAAAAAAAAAAAAAAAAAAAAAAAAAAAAAAAAAAAAAAAAAAAAAAAAAAAAAAAAAAAAAAAAAAAAAAAAAAAAAAAAAAAAAAAAAAAAAAAAAAAAAAAAAAAAAAAAAAAAAAAAAAAAAAAAAAAAAAAAAAAAAAAAAAAAAAAAAAAAAAAAAAAAAAAAAAAAAAAAAAAAAAAAAAAAAAAAAAAAAAAAAAAAAAAAAAAAAAAAAAAAAAAAAAAAAAAAAAAAAAAAAAAAAAAAAAAAAAAAAAAAAAAAAAAAAAAAAAAAAAAAAAAAAAAAAAAAAAAAAAAAAAAAAAAAAAAAAAAAAAAAAAAAAAAAAAAAAAAAAAAAAAAAAAAAAAAAAAAAAAAAAAAAAAAAAAAAAAAAAAAAAAAAAAAAAAAAAAAAAAAAAAAAAAAAAAAAAAAAAAAAAAAAAAAAAAAAAAAAAAAAAAAAAAAAAAAAAAAAAAAAAAAAAAAAAAAAAAAAAAAAAAAAAAAAAAAAAAAAAAAAAAAAAAAAAAAAAAAAAAAAAAAAAAAAAAAAAAAAAAAAAAAAAAAAAAAAAAAAAAAAAAAAAAAAAAAAAAAAAAAAAAAAAAAAAAAAAAAAAAAAAAAAAPZYQBPDca5YzKwQWtVdyI8xb8RGZKuket2xu7vvgwGQY7+ICLc6PKYUYBr+ak9/VAdQ2OBVPbUbwed+XNFnaLafobo=</c2pa:manifest></metadata><path d="M37.7 28H474.7C478 28 480.7 30.7 480.7 34V287H37.7V28Z" fill="#202020"/><path d="M461.3 36.4C453.5 36.6 443.2 36.4 435.3 36.1C432.9 36 434.1 35.5 432.4 35.4C429.1 35.3 426 35.5 422.8 35.3C421.7 35.2 423 34.5 421.9 34.4C415.7 34.1 409.8 34.3 403.5 34.1C372.4 33.4 341.8 33.1 310.4 32.8C300 32.7 287.4 32 276.7 32.3C275.4 32.4 276.2 33 275.9 33C272.2 33.8 273.4 32.6 271 32.4C261.3 31.7 250.6 31.7 241.2 31.9C237.3 32 241.3 33.3 237.3 32.6C237 32.5 238 31.9 236.9 31.8C234.4 31.6 229.8 31.7 227.9 31.7C224.2 31.6 223.6 31.6 220.1 31.6C215.3 31.6 209.7 31.2 204.6 31.4C203.5 31.4 204.9 32.1 203.2 32.2C201.5 32.3 196.9 32.3 195.3 32.1C193.8 32 194.4 31.4 194.1 31.3C191.9 30.3 186.6 31.7 185.9 31.7C173.4 32.3 162.7 31.5 151 31.5C142.1 31.5 132.6 31.8 124.1 31.8C114 31.7 105.5 31.3 95.7 31.4C94.6 31.4 95.8 32.2 94.6 32.2C81.2 32.3 67.8 32.2 54.5 31.7C53.1 31.6 54.9 30.9 53.5 30.8C49 30.5 42.9 29.9 37.7 30L39.7 28C39.7 32.2 40.2 36 41.6 38.2C41.5 43.7 41.3 50.5 40.7 55.4C40.3 58.6 39.6 55.5 39.9 59.4C40 60.3 40.6 59.2 40.7 60.5C40.9 66.1 40.7 72.2 41.1 77.8C41.1 78.9 41.7 78.6 41.8 78.9C42.7 81.6 41.3 86.1 41.2 87C40.4 94.5 40.7 99.9 40.7 106.8C40.7 108.4 41.5 106.5 41.5 108C41.6 116 41.5 124.3 41.2 132.2C41.1 133.9 40.4 132.3 40.3 133.1C40 136.8 41.3 137.6 41 141.1C41 141.9 40.4 141.5 40.3 141.6C39.3 143.7 40.8 145.6 40.8 146.1C41.2 153 39.7 157.4 39.9 164.1C40 164.9 40.7 163.1 40.7 165.3C40.9 180.2 40.7 196 40.1 210.8C40 213.1 39.5 211.5 39.4 211.6C38.3 214 39.8 215.5 39.8 216.2C40.2 222.1 39 227.7 40.7 231.7C40.3 250.2 40.7 268.6 40.3 287L37.7 284.3C44.1 284.5 50.6 284.7 57.1 285.1C57.4 285.1 56.8 285.8 57.5 285.9C65.1 286.3 63.6 285.1 68.6 283.8C69.9 283.5 73.7 285.1 74.1 285.2C75.3 285.6 74 286.7 74.4 286.8C77.9 287.5 77.3 284 81.9 284C82.1 284 81.5 284.6 81.9 284.7C83.1 284.9 84.3 284.6 85.4 284.8C88.2 285.4 89.1 287.1 93.2 286.1C93.8 285.9 93 283.9 97.1 284C98.8 284.1 106.1 284 108.1 284.2C110.1 284.3 108.7 284.9 108.9 285C114.4 285.8 112.3 286.2 115.1 287.4C117.8 288.7 117.1 285.7 118.2 285.4C119.3 285 123.3 285.7 124.3 286C125.3 286.2 124.1 286.6 125 286.8C130.8 287.7 127.5 285.3 129.5 284.8C134 283.7 137.5 285.9 141.7 286.1C142.8 286.2 141.9 285.7 142.9 285.6C146.9 285.4 149.2 286.1 153.8 285.5C154.5 285.4 158.1 284.1 160.5 285C160.8 285.2 159.9 285.7 161.6 285.9C164.1 286 168.7 286.2 171.4 286C173.4 285.8 171.1 284.9 173.6 285.2C174.7 285.3 172.6 285.9 174.7 286.1C176.8 286.3 182.2 286.2 184.2 286.2C186.3 286.2 185.2 285.5 185.3 285.5C186.3 285.2 190.2 284.9 190.6 284.9C208 284.8 224 285.9 241 285.6C242.3 285.5 241.4 284.8 241.6 284.8C246.2 284.5 242.6 286.4 245.8 287.1C245.3 285.6 247.2 285.9 250.4 285.7C251.9 285.6 251.1 285 251.2 285C253.5 284.1 255.1 285.2 255.5 285.5C257 286.3 258.7 285.3 259.7 285.9C260.8 286.4 258.4 287.3 261.5 287.3C262.3 286.7 260 285.4 262.4 285.1C271.2 284.3 287.6 285.4 294.7 285.5C301.8 285.6 304.1 285.5 308.2 285.7C315.6 286 312.9 285 317.5 284.5C322.1 284.1 319.9 286.6 320.6 287.1C321.2 287.7 321.9 287.1 322.7 287.4C323.6 287.7 321.8 288.1 323.7 288.2C325.6 288.3 330.8 287.3 331.5 286.8C332.9 285.6 330.6 284.3 335.6 284.8C335.9 284.8 335 285.4 336.1 285.5C344.9 286 354.1 286 362.9 286.5C364.1 286.6 363 287.3 363.7 287.3C371.1 287.8 368.5 286.6 372.5 285.2C371.6 287 373.8 288.2 379.4 288.2C382.8 288.2 382.2 287.4 384.3 286.8C385 286.6 387.4 287.2 387.8 286.8C389.2 285.6 387 284.2 392.7 284.7C393 284.8 392.2 285.4 393.1 285.5C398.7 285.8 399.4 284.5 405.5 284.3C410.2 284.2 418.7 285 424.2 285.1C424 287.2 429.2 286.7 431.3 285.3C434.8 285.3 438.6 285.2 442 285.4C443.2 285.5 442.4 286.1 442.6 286.2C444.8 287.2 446.4 285.8 447.1 285.7C455.4 285.2 462.1 286.3 470 285.2C470.3 285.2 470.7 283.8 472.8 284.8C473 284.9 470.4 285.5 474.1 285.6C475.8 285.6 478.1 285.8 480.7 285.9L479.6 287C479.7 283.9 479.8 280.6 479.4 277.7C479.2 276.5 478.1 273.3 479 270.8C479.1 270.5 479.5 270.9 479.8 270.4C480.5 268.8 479 267.9 480.3 266.1C481.5 264.2 482.4 260.4 481.6 255.2C481.5 255 480.4 253.8 480.4 252.2C480.4 249.6 480.7 245.9 480.7 243.2C480.7 241.9 480 242.7 479.9 242.5C479.5 233.7 480.2 227.5 480.5 218.1C480.5 216.4 479.5 211.4 480.3 208.1C481.1 204.4 484.6 208.2 483.8 199.8C483.5 196.4 479 192.1 481.3 186C480.8 174.2 481.9 163.3 481.1 151.4C481.1 150.9 479.9 149.2 479.9 148C479.9 146.1 480.5 145.1 480.5 143.8C480.7 138.2 480.2 133.1 480.3 127.8C480.3 125.7 480.9 126.4 480.9 124C481 121.6 480.2 120 480.6 116.7C480.8 114.2 482.5 111.7 482.6 108.4C481.1 108.3 481.1 106 480.7 102C480.6 101.2 480 102 480 101.7C479.7 100.2 480.1 98.8 479.8 97.4C479.8 97 479.2 97 479.1 96.7C478.3 94.4 479.5 90.4 479.8 89.7C480.6 87.1 479.9 85.9 480.2 83.9C480.5 82 480.9 84.9 481.1 82.6C481.5 77.8 481.4 71.6 481.4 66.7C481.4 64.8 480.7 66.1 480.7 65.8C480.5 61.8 481.3 57.7 479.8 55.5C483.6 52.7 479.5 53.1 480.2 47.3C480.3 46.9 482 46.3 482.3 48C482.6 49.8 482 52.4 482.4 54.8C482.5 55.4 484.2 58.7 484.3 59.1C485 62.6 482.4 63.1 482.3 63.3C480.7 65.4 482.5 69.4 482.6 70.5C483.2 75.3 482.8 79.4 483.2 83.4C483.5 86.1 485.2 86.3 485.1 88.4C485 95.3 482.5 97.7 484.6 104.2C485.1 105.6 487 104.2 485.5 109.2C485.4 109.5 484 113.2 484.9 115.4C485 115.6 485.6 115.6 485.6 116C485.9 118.3 485.5 119.9 485.7 122.5C485.9 125.1 486.2 128.2 486 131.2C485.9 133 484.9 135.2 484.6 136.1C483.9 138.5 485.1 141.1 484.2 142.6C483.3 144.1 482 141.1 481.4 145.1C482.8 145.2 484.3 145.6 485.8 145.8C485.7 154.4 485.2 162.9 485.3 171.6C485.3 172.7 486.1 171.6 486.1 172.7C486.2 177.6 485.7 181.8 485.9 186.9C486.1 190.8 486.9 195.1 487.1 199.2C485.5 201.6 486 207.7 485.9 212.1C485.8 213.6 485.4 213.5 485.2 214.6C484.7 218.8 486.2 216.8 486.4 218C487.3 222.8 484.1 223.2 484.2 229C484.2 229.3 485.9 233 486 233.5C486.7 236.8 485.4 234 485.3 236.1C485 239.8 484.6 242.4 485.1 246.7C485.3 248 486.4 251 485.5 253.5C485.4 253.8 484.8 253.7 484.8 253.9C484.3 258.6 486.1 258.8 486.7 261.5C487.3 264.2 486 268.3 485.7 269.2C484.7 271.4 485.3 267.5 485.2 267.4C484.1 266 484.3 269 484.2 271.3C482.4 271.7 482.5 274.9 484.1 273.7C484.3 273.6 484.1 271.8 484.2 271.3C485.9 273.4 486.2 276.9 484.5 280.9C483.8 282.7 482.9 281 483.2 286.6C483.2 286.7 483.2 286.9 483.2 287C483.2 288.5 482.1 289.6 480.7 289.6C478.6 289.8 479.4 290.9 477.2 291.3C472.1 292 465.4 290.9 460.1 291.1C458.2 291.1 460.1 291.8 458.8 291.9C455.3 292 452.2 291.5 448.7 291.8C448.4 291.8 449.2 292.5 448.1 292.5C439.8 292.6 432.6 292.2 424 292.1C419.9 292.1 412.4 292.5 408.1 292.4C400.6 292.3 391.4 291.3 385 291.5C380.9 291.7 381.8 292.4 380 292.9C376.6 293.8 370.5 292.2 369.6 291.9C369.6 291.9 373.2 291.7 371.3 291.4C370.2 290.6 369.7 291.9 369.6 291.9C369.1 291.7 361.9 291.6 360.5 291.7C359.7 291.8 360.2 292.4 359.8 292.5C350.2 293.1 340.6 293.2 330.9 292.9C330.7 292.9 331 292.2 330.6 292.1C325 291.8 321.4 292.7 316.7 293.3C312.1 293.8 308.4 293.6 305.7 292.3C302.2 292.5 297.2 291.9 294.3 291.6C291.4 291.3 291 292.7 290.7 292.7C282.8 293.6 278.2 292.8 270 292.7C266.1 292.6 258.3 292.8 254.1 293C250.8 293.1 248.7 292.8 245.7 293C245.2 293 245.7 293.7 245.5 293.7C242.1 294.5 243.8 292.9 243 292.6C240.5 291.6 238.9 291 234.5 291.5C233.5 291.6 230.5 293.9 228.7 294C226.2 294.2 227.2 293.4 224.6 293.6C224.4 293.6 224.5 294.1 222.9 294.1C215.7 294 207.8 293.7 200.3 293.7C199.3 293.7 200.6 294.5 199.1 294.6C192.2 294.7 184.5 294.6 177.8 294.3C176.1 294.2 177.1 293.6 176.8 293.4C174.6 292.4 171.4 293.9 170.9 293.9C158.5 294.6 149 293.3 136.4 293.9C135.7 294 130.4 295.5 128 294.2C127.9 294.1 125.5 292.7 123.5 293.7C123.3 293.7 124.8 294.4 122.2 294.4C119.7 294.3 115.6 294.8 112.1 294C111 293.7 108.4 292.4 105.1 293.5C104.9 293.5 99.8 296 98 294.3C97.7 294 98 292.2 94 293.1C93.3 293.3 94.7 293.7 92.7 294C89.6 294.4 85.6 293.9 81.9 294.7C81.2 294.8 78.5 296 76.2 295.1C75.9 295 76.6 294.4 75.4 294.3C69.8 294 64 294.4 58.3 294C56.3 293.8 57.3 292.9 55.2 292.6C53.1 292.3 48.9 292.1 46.7 292.5C44.5 293 46.9 294.5 43.6 294.6C41.6 294.7 39.6 294.8 37.7 294.8C33.3 294.7 29.8 291.4 29.9 287C29.7 274.8 30.4 262.6 30.5 250.3C30.5 248.2 30 250 30 246.9C29.9 235.4 29.4 215.6 30.6 205.6C31.5 197.6 32.2 207.7 32.6 201.6C32.8 198.6 31 195.4 31 194.7C30.4 187.8 31.2 183 30.9 176.7C30.9 175.4 30.2 176.7 30.1 175.6C30 171.8 30.3 167.9 30.3 164.3C30.2 162.7 29.7 163 29.7 161.5C29.8 158 30.1 154.9 30.6 151.4C30.6 151.1 31.3 153.2 31.3 150.6C31.4 146.4 31.9 141.1 31.4 136.2C31.2 134.8 29.9 134.7 30.8 131.6C31 130.9 32.5 131.8 31.2 128.2C31 127.5 29.2 121.5 30.3 118.5C30.6 117.7 31.9 115.7 31.7 113.9C31.7 113.7 31 114.6 30.9 113.2C30.7 108.1 30.8 102.8 30.6 97.6C30.5 96.2 29.8 98.3 29.7 96.2C29.6 90.5 29.7 83.3 30 77.7C30 75.7 30.6 77.1 30.7 77C31.7 74.6 30.3 73.1 30.2 72.3C29.8 67.4 30.4 63.6 30.2 59C30.2 57.7 29.5 58.6 29.5 58.4C28.9 55.7 30.1 57.7 30.2 56C30.6 51.4 30.5 46.2 30.4 41.6C30.4 39.8 29.6 41.8 29.6 40.2C29.6 36.2 29.5 32.1 29.6 28C29.6 23.4 33.1 19.9 37.7 19.9C42.8 20 48 20.1 53 20.3C54.7 20.4 53.6 21 54 21.1C56.4 22.1 59.9 20.8 60.7 20.7C64.4 20.1 65.9 20.6 69.1 20.5C85.1 20 104.8 20.4 119.9 20.6C139.5 20.9 154.7 21.5 173.5 21.3C174.6 21.3 173.4 20.5 174.5 20.5C187.7 20.3 200.8 20.6 214 20.4C215.1 20.4 213.5 19.6 215.3 19.6C218.9 19.4 223.4 19.5 227 19.7C228.8 19.8 226.4 20.5 228.2 20.6C232.4 20.8 236.8 20.9 241.1 20.8C242.9 20.7 240.1 19.9 242.5 19.9C258.5 19.9 274.3 19.7 290.5 20.7C291.6 20.8 292.6 22.3 294.9 22C295.1 21.6 295.1 21.1 295.2 20.6C318.5 20.4 341.6 20.9 365 21C366 21 364.3 20.2 366.2 20.2C377.3 20.2 388 20 399.3 20.8C400.5 20.9 399.9 22.3 403.2 22.1C403.8 22.1 408.8 21.9 410 21.6C410.2 21.5 409.3 20.8 410.9 20.8C420.2 20.7 430 20.9 439.3 21.3C440.8 21.4 439.2 22.1 440.3 22.1C447.9 22.5 456.2 22 463.4 22.6C468.3 23.1 466.5 24.3 469.1 25.5C469.4 25.7 472.4 25.7 472.6 26.5C473 28.2 471.5 30.2 472.1 32.1C472.3 32.5 476.3 32.1 473.9 33.1C473.7 33.2 470.8 33.5 470.1 33.8C469.6 34.1 470.5 34.8 469.5 35.1C468.5 35.4 467.3 34.8 465.6 35.1C463.9 35.5 464.7 36.3 461.3 36.4ZM281.3 290.1C278.6 289.4 278.2 291.9 281.1 291.3C281.2 291.3 281.4 290.1 281.3 290.1ZM483.3 162.9C482.2 166.4 483.9 168.8 484.7 166.3C485.6 163.8 483.7 161.8 483.3 162.9ZM482.5 126.6C481.6 130.7 485.2 131.4 484.5 127C484.5 126.7 482.6 126.4 482.5 126.6ZM457.1 25.9C457.1 25.9 459.3 26 459.3 25.9C460.5 25.1 456.2 25 457.1 25.9ZM481.6 90.7C481.1 92 481.7 95.6 482.3 94C482.8 92.8 482.2 89.1 481.6 90.7ZM141.8 287.4C141.8 287.3 140.2 287.3 140.2 287.5C140.3 288.2 142.5 288 141.8 287.4ZM479.8 29.3C481 30.7 481.4 32.6 481.3 34C480.5 40 478.5 42.3 478.8 34.2C478.8 34.1 478.8 34.1 478.8 34C478.8 33.9 478.9 33.9 479 34C479.2 34.7 479.8 37.5 480 35.8C480.1 35.2 480.1 34.6 480.1 34C480 32.5 479.2 31.4 478.2 30.7C477.2 29.9 476.2 29.5 474.7 29C474.4 29 475.3 28.3 476.7 28.3C478 28.3 479.6 29.1 479.8 29.3C479.8 29.3 479.8 29.3 479.8 29.3ZM279.7 287C279.7 287 277.5 286.9 277.5 287C276.3 287.8 280.6 287.9 279.7 287ZM51.3 285.8C51.2 285.7 46.3 285.6 46.1 285.7C43.5 287 53.6 287.2 51.3 285.8ZM424.2 285.2C426.6 284.3 429.4 284.2 431.3 285.3C428.9 285.2 426.6 285.2 424.2 285.2Z" fill="#D5D2CD"/><path d="M22.9 0.1C32 -0.1 43.9 0.1 52.9 0.4C55.7 0.4 54.3 0.8 56.3 0.9C60.1 1 63.6 0.8 67.4 1C68.7 1.1 67.1 1.7 68.4 1.7C75.6 2 82.4 1.8 89.7 1.9C125.6 2.6 160.9 2.8 197.2 3C209.2 3.1 223.7 3.7 236.1 3.4C237.5 3.4 236.7 2.9 237 2.8C241.3 2.2 239.8 3.2 242.6 3.4C253.8 3.9 266.2 4 277 3.8C281.6 3.7 277 2.7 281.6 3.2C281.9 3.3 280.7 3.8 282 3.9C284.8 4 290.2 3.9 292.4 4C296.7 4 297.4 4 301.4 4C306.9 4.1 313.4 4.3 319.3 4.2C320.6 4.2 318.9 3.6 320.9 3.5C322.9 3.4 328.2 3.5 330 3.6C331.8 3.7 331.1 4.2 331.4 4.3C334 5.1 340.1 4 340.9 3.9C355.3 3.4 367.7 4.1 381.2 4.1C391.5 4.1 402.5 3.9 412.2 3.9C423.9 3.9 433.8 4.2 445.1 4.2C446.3 4.2 444.9 3.5 446.3 3.5C461.8 3.4 477.2 3.5 492.6 4C494.2 4 492.2 4.6 493.7 4.7C498.3 4.9 504.3 5.3 509.8 5.3C514.2 5.3 517.5 9.3 517.7 12.9C518 14.8 518.3 16.4 518.9 17.6C518.8 24 518.7 31.8 518.2 37.5C517.9 41.2 517.2 37.6 517.5 42.2C517.6 43.2 518.1 41.9 518.2 43.4C518.4 49.9 518.2 57 518.5 63.3C518.5 64.6 519 64.3 519.1 64.7C519.8 67.8 518.6 72.9 518.5 74C517.9 82.6 518.2 88.9 518.1 96.8C518.1 98.7 518.8 96.5 518.8 98.3C518.9 107.5 518.9 117.1 518.6 126.1C518.5 128.1 517.9 126.3 517.9 127.3C517.6 131.5 518.7 132.4 518.4 136.5C518.4 137.4 517.9 136.9 517.9 137C517 139.5 518.2 141.6 518.2 142.2C518.6 150.2 517.4 155.3 517.5 163C517.6 163.9 518.2 161.8 518.2 164.4C518.4 181.6 518.2 199.9 517.7 216.9C517.6 219.6 517.2 217.7 517.1 217.9C516.2 220.6 517.4 222.3 517.5 223.2C517.8 230 516.8 236.4 518.2 241C517.9 261.1 518.1 281.2 517.9 301.1C518 305.5 514 309.3 509.8 309.1C504.1 309 498.5 308.8 492.8 308.6C492.4 308.6 493.1 308 492.4 307.9C483.6 307.6 485.3 308.5 479.5 309.6C478 309.9 473.6 308.6 473.2 308.5C471.8 308.1 473.3 307.2 472.8 307.2C468.8 306.6 469.5 309.5 464.1 309.5C463.9 309.5 464.7 309 464.2 308.9C462.8 308.8 461.4 309 460.1 308.8C456.9 308.4 455.8 307 451.1 307.8C450.5 307.9 451.4 309.5 446.6 309.4C444.7 309.4 436.3 309.4 433.9 309.3C431.6 309.2 433.2 308.7 433 308.7C426.6 308 429.1 307.7 425.9 306.6C422.7 305.6 423.6 308.1 422.3 308.3C421 308.6 416.3 308 415.2 307.8C414 307.6 415.5 307.3 414.4 307.2C407.7 306.5 411.5 308.4 409.3 308.8C404 309.7 399.9 307.9 395.1 307.7C393.8 307.7 394.9 308.1 393.7 308.1C389.2 308.3 386.4 307.7 381.2 308.2C380.3 308.3 376.1 309.4 373.4 308.6C373 308.5 374.1 308 372.2 307.9C369.3 307.8 364 307.7 360.9 307.8C358.6 308 361.2 308.7 358.3 308.5C357 308.4 359.4 307.9 357 307.8C354.5 307.6 348.4 307.6 346 307.6C343.7 307.7 344.9 308.2 344.8 308.3C343.6 308.5 339.1 308.8 338.7 308.8C318.6 308.8 300.1 307.9 280.5 308.2C279 308.2 280 308.8 279.8 308.8C274.5 309.1 278.7 307.5 275 306.9C275.5 308.2 273.4 307.9 269.6 308.1C267.9 308.1 268.8 308.6 268.7 308.7C266 309.4 264.2 308.4 263.7 308.3C262 307.6 260.1 308.4 258.9 307.9C257.7 307.5 260.4 306.8 256.9 306.8C255.9 307.2 258.5 308.4 255.8 308.5C245.6 309.2 226.7 308.3 218.5 308.3C210.3 308.2 207.7 308.2 202.9 308.1C194.3 307.8 197.5 308.6 192.1 309C186.8 309.4 189.4 307.3 188.6 306.9C187.9 306.5 187 306.9 186.1 306.7C185.2 306.4 187.2 306.1 185 306C182.8 305.9 176.8 306.7 176 307.2C174.3 308.2 177.1 309.2 171.2 308.9C170.9 308.8 172 308.3 170.7 308.2C160.5 307.8 149.9 307.8 139.7 307.4C138.3 307.4 139.6 306.8 138.8 306.7C130.3 306.3 133.3 307.4 128.7 308.5C129.7 307 127.1 306.1 120.7 306C116.8 306 117.5 306.7 115 307.2C114.2 307.3 111.5 306.8 111 307.2C109.4 308.2 111.9 309.3 105.3 308.9C105 308.8 105.9 308.3 104.9 308.2C98.4 308 97.6 309.1 90.6 309.2C85.1 309.3 75.3 308.7 69 308.6C69.1 306.9 63.2 307.3 60.8 308.4C56.7 308.4 52.3 308.4 48.4 308.3C47 308.2 47.9 307.7 47.8 307.7C45.1 306.8 43.4 308 42.5 308C33 308.5 25.2 307.6 16.1 308.4C15.8 308.5 15.3 309.7 12.8 308.8C12.7 308.7 15.7 308.2 11.4 308.2C10.3 308.1 9 308.1 7.5 308C4.2 308.1 0.7 304.8 0.8 301.1C0.8 299.3 0.8 297.6 0.6 295.9C0.5 294.5 -0.5 290.9 0.3 287.9C0.4 287.6 0.7 288 0.9 287.4C1.5 285.6 0.3 284.6 1.3 282.5C2.3 280.4 3.1 275.9 2.4 269.9C2.4 269.7 1.4 268.3 1.5 266.4C1.5 263.4 1.7 259.2 1.7 256C1.7 254.5 1.1 255.5 1.1 255.2C0.7 245.1 1.3 237.9 1.5 227.1C1.5 225.1 0.7 219.4 1.4 215.5C2.1 211.3 4.9 215.7 4.3 206C4 202 0.3 197.1 2.2 190.1C1.7 176.4 2.7 163.8 2 150.1C2 149.5 1 147.6 1 146.1C1 144 1.5 142.8 1.5 141.3C1.7 134.8 1.3 129 1.3 122.8C1.4 120.4 1.9 121.2 1.9 118.4C1.9 115.6 1.3 113.8 1.6 110C1.8 107.1 3.1 104.2 3.3 100.4C2 100.3 2 97.7 1.7 93C1.6 92.1 1.1 93.1 1.1 92.7C0.9 90.9 1.2 89.4 1 87.7C0.9 87.3 0.5 87.3 0.4 87C-0.3 84.2 0.7 79.7 0.9 78.9C1.6 75.9 1 74.5 1.3 72.2C1.5 69.9 1.8 73.3 2 70.7C2.3 65.1 2.3 58 2.3 52.3C2.3 50.1 1.7 51.6 1.7 51.3C1.5 46.6 2.2 41.9 1 39.4C4 36.1 0.7 36.6 1.3 29.9C1.3 29.4 2.8 28.7 3 30.7C3.2 32.7 2.8 35.8 3.1 38.6C3.2 39.2 4.5 43 4.6 43.5C5.3 47.6 3.1 48.2 3 48.4C1.7 50.8 3.2 55.4 3.3 56.6C3.7 62.2 3.4 66.9 3.7 71.6C4 74.7 5.4 75 5.3 77.3C5.2 85.3 3.2 88.1 4.9 95.6C5.3 97.2 6.9 95.6 5.6 101.3C5.6 101.7 4.4 106 5.1 108.5C5.2 108.8 5.7 108.8 5.7 109.2C6 111.9 5.6 113.7 5.8 116.7C6 119.7 6.2 123.3 6.1 126.7C6 128.8 5.1 131.4 4.9 132.4C4.3 135.2 5.3 138.2 4.6 139.9C3.9 141.6 2.8 138.2 2.3 142.8C3.5 142.9 4.7 143.3 5.9 143.6C5.8 153.6 5.4 163.4 5.5 173.4C5.5 174.6 6.1 173.4 6.1 174.7C6.2 180.3 5.8 185.2 6 191C6.1 195.6 6.8 200.5 7 205.2C5.6 208.1 6.1 215.1 5.9 220.2C5.9 221.9 5.5 221.8 5.4 223.1C5 227.9 6.2 225.6 6.4 226.9C7.2 232.5 4.5 233 4.5 239.6C4.5 240 6 244.3 6.1 244.9C6.7 248.6 5.6 245.5 5.5 247.8C5.3 252.1 4.9 255.1 5.3 260.1C5.5 261.6 6.4 265.1 5.7 268C5.6 268.3 5.1 268.1 5.1 268.4C4.6 273.9 6.1 274 6.6 277.2C7.1 280.3 6.1 285.1 5.8 286.1C5 288.6 5.5 284.1 5.4 284C4.5 282.3 4.6 285.8 4.6 288.5C3.1 288.9 3.2 292.7 4.5 291.3C4.6 291.2 4.5 289.1 4.6 288.5C6 290.9 6.2 295 4.8 299.6C4.6 300.6 4.2 300.7 4 301.1C3.9 301.3 3.8 301.6 3.8 302.1C3.9 302.5 4.2 303.3 5.1 304C5.8 304.5 6.2 304.3 6.5 304.1C6.8 303.9 7 303.7 7.5 303.5C7.6 303.5 7.7 303.5 7.7 303.5C13.7 302.9 21.4 303.8 27.5 303.7C29.7 303.6 27.5 303.1 29.1 303C33.1 302.9 36.6 303.3 40.7 303.1C41 303 40.2 302.5 41.4 302.4C50.9 302.4 59.2 302.8 69.2 302.8C74 302.8 82.6 302.4 87.6 302.5C96.2 302.6 106.8 303.5 114.2 303.3C119 303.1 117.9 302.5 120 302.2C124 301.4 131 302.8 132 303C132 303 127.9 303.1 130.1 303.4C131.3 304 131.9 303 132 303C132.6 303.1 140.8 303.2 142.5 303.1C143.4 303.1 142.9 302.5 143.3 302.5C154.4 302 165.5 301.9 176.7 302.1C176.9 302.1 176.6 302.7 177 302.8C183.5 303 187.7 302.3 193 301.8C198.4 301.4 202.6 301.6 205.8 302.6C209.8 302.5 215.6 302.9 219 303.2C222.3 303.5 222.8 302.3 223.1 302.3C232.2 301.5 237.5 302.2 247 302.3C251.5 302.4 260.5 302.2 265.3 302.1C269.2 302 271.5 302.2 275.1 302.1C275.6 302 275.1 301.5 275.2 301.5C279.2 300.9 277.3 302.1 278.1 302.4C281.1 303.2 282.9 303.7 288 303.3C289.2 303.2 292.6 301.3 294.7 301.2C297.5 301.1 296.5 301.7 299.4 301.6C299.6 301.6 299.6 301.2 301.4 301.2C309.7 301.2 318.8 301.5 327.5 301.4C328.6 301.4 327.1 300.8 328.8 300.8C336.9 300.7 345.7 300.7 353.5 301C355.4 301.1 354.2 301.6 354.6 301.7C357.2 302.5 360.8 301.3 361.4 301.3C375.7 300.7 386.7 301.8 401.3 301.3C402.1 301.3 408.2 300 410.9 301.1C411.1 301.2 413.8 302.3 416.2 301.5C416.3 301.5 414.6 300.9 417.6 300.9C420.5 301 425.2 300.6 429.3 301.2C430.5 301.4 433.6 302.6 437.4 301.7C437.6 301.6 443.5 299.6 445.6 301C445.9 301.2 445.6 302.7 450.1 301.9C451 301.8 449.4 301.5 451.7 301.3C455.2 300.9 459.9 301.3 464.2 300.7C464.9 300.6 468.1 299.6 470.7 300.3C471.1 300.4 470.3 300.9 471.7 301C478.1 301.2 484.9 300.9 491.4 301.3C493.7 301.4 492.6 302.2 495 302.4C497.4 302.6 502.3 302.8 504.8 302.4C507.3 302.1 504.6 300.8 508.3 300.7C508.8 300.7 509.3 300.7 509.8 300.7C509.5 300.6 509.2 300.8 509.2 301.1C509.2 288.3 509.7 275.5 509.8 262.6C509.8 260.1 509.3 262.2 509.3 258.6C509.3 245.3 508.9 222.4 509.8 210.9C510.6 201.7 511.2 213.3 511.5 206.3C511.7 202.9 510.2 199.2 510.1 198.4C509.7 190.4 510.3 184.8 510.1 177.6C510.1 176.1 509.5 177.5 509.5 176.3C509.3 171.9 509.6 167.4 509.6 163.3C509.5 161.4 509.1 161.7 509.1 160C509.2 156 509.4 152.3 509.8 148.4C509.9 148 510.4 150.4 510.5 147.4C510.5 142.5 510.9 136.4 510.5 130.8C510.3 129.2 509.3 129.1 510 125.5C510.2 124.7 511.4 125.7 510.3 121.5C510.2 120.8 508.7 113.8 509.6 110.3C509.9 109.4 510.9 107.1 510.8 105.1C510.7 104.8 510.2 105.9 510.1 104.3C509.9 98.4 510 92.2 509.8 86.2C509.8 84.6 509.2 87 509.1 84.6C509 78 509.1 69.8 509.3 63.3C509.4 60.9 509.9 62.6 509.9 62.4C510.8 59.6 509.6 58 509.5 57.1C509.1 51.3 509.7 46.9 509.5 41.7C509.5 40.2 509 41.2 508.9 40.9C508.4 37.9 509.4 40.2 509.5 38.3C509.8 32.9 509.8 26.9 509.7 21.5C509.7 19.6 509.1 21.8 509 20C509 17.6 509 15.3 509 12.9C509 13.3 509.4 13.7 509.8 13.6C504.6 13.6 499.4 13.5 494.3 13.3C492.4 13.2 493.6 12.8 493.2 12.6C490.4 11.9 486.3 12.9 485.4 13C481.1 13.5 479.5 13.1 475.7 13.1C457.3 13.5 434.5 13.3 417.1 13.1C394.4 12.9 376.9 12.4 355.2 12.5C353.9 12.5 355.3 13.2 354.1 13.2C338.8 13.3 323.7 13.1 308.4 13.3C307.2 13.3 309 13.9 307 13.9C302.8 14 297.6 14 293.4 13.8C291.3 13.7 294.1 13.2 292 13.1C287.2 12.9 282.1 12.9 277.2 13C275.1 13 278.3 13.6 275.5 13.6C257 13.7 238.9 13.8 220.1 13C218.9 12.9 217.7 11.7 215 11.9C214.8 12.3 214.8 12.7 214.7 13.1C187.8 13.3 161.1 12.8 134.1 12.8C132.9 12.7 134.9 13.4 132.7 13.4C119.9 13.4 107.5 13.6 94.5 12.9C93.2 12.9 93.8 11.7 90 11.8C89.3 11.9 83.6 12 82.1 12.3C81.9 12.3 82.9 12.9 81.1 12.9C70.3 13 59 12.9 48.3 12.5C46.5 12.5 48.4 11.9 47.2 11.8C38.4 11.5 28.9 12 20.5 11.4C14.9 11.1 16.9 10 14 9C13.5 8.9 10.1 8.9 9.9 8.3C9.4 6.8 11.1 5.2 10.4 3.6C10.3 3.3 5.6 3.6 8.4 2.8C8.6 2.7 11.9 2.5 12.8 2.2C13.4 2 12.3 1.4 13.5 1.2C14.7 0.9 16 1.4 17.9 1.1C19.9 0.8 19 0.2 22.9 0.1ZM234 304.5C237.1 305 237.5 302.9 234.2 303.5C234 303.5 233.8 304.4 234 304.5ZM3.9 163.3C2.9 167.4 4.3 170.1 5 167.3C5.7 164.4 4.1 162.1 3.9 163.3ZM3.2 121.5C2.4 126.2 5.4 127 4.8 121.9C4.8 121.6 3.2 121.2 3.2 121.5ZM27.8 8.7C27.7 8.7 25.2 8.7 25.2 8.7C23.9 9.4 28.9 9.4 27.8 8.7ZM2.4 80C2 81.4 2.5 85.7 3 83.9C3.4 82.4 2.9 78.1 2.4 80ZM395 306.7C395.1 306.7 396.8 306.8 396.8 306.6C396.7 306 394.2 306.2 395 306.7ZM3.3 10C2.7 10.9 2.3 11.9 2.3 12.9C1.8 21.1 -0.1 24.8 0.1 14.8C0.2 12.7 0.9 19.2 1.1 16.6C1.2 15.3 1.2 14 1.1 12.9C0.7 9.7 3.1 5.7 7.4 6.2C7.9 6.3 6.4 6.5 5.2 7.5C4 8.4 3.4 9.8 3.3 10C3.3 10 3.3 10 3.3 10ZM235.8 307C235.8 307 238.3 307 238.4 307C239.7 306.3 234.7 306.3 235.8 307ZM499.4 308C499.6 308.1 505.3 308.1 505.5 308.1C508.5 307 496.9 306.9 499.4 308ZM68.9 308.5C66.2 309.2 63 309.3 60.8 308.4C63.5 308.5 66.2 308.5 68.9 308.5Z" fill="#D5D2CD"/></svg>