<svg width="163" height="163" viewBox="0 0 163 163" fill="none" xmlns="http://www.w3.org/2000/svg">
<path d="M4.7323 4.73242V3.84511H3.84499V4.73242H4.7323ZM153.504 4.73242C153.504 7.34601 155.623 9.46473 158.237 9.46473C160.85 9.46473 162.969 7.34601 162.969 4.73242C162.969 2.11884 160.85 0.000110149 158.237 0.000110149C155.623 0.000110149 153.504 2.11884 153.504 4.73242ZM-1.19209e-05 158.237C-1.19209e-05 160.85 2.11872 162.969 4.7323 162.969C7.34588 162.969 9.46461 160.85 9.46461 158.237C9.46461 155.623 7.34588 153.504 4.7323 153.504C2.11872 153.504 -1.19209e-05 155.623 -1.19209e-05 158.237ZM4.7323 4.73242V5.61973H158.237V4.73242V3.84511H4.7323V4.73242ZM4.7323 158.237H5.61961V4.73242H4.7323H3.84499V158.237H4.7323Z" fill="white"/>
</svg>
